<svg xmlns="http://www.w3.org/2000/svg"
 xmlns:xlink="http://www.w3.org/1999/xlink"
 width="14px" height="14px"  viewBox="0 0 14 14">
<path fill-rule="evenodd"  fill="rgba(255,255,255,0.74)"
 d="M6.999939,10.993408 C6.999939,10.993408 1.999939,6.090271 1.999939,6.090271 C1.999939,6.090271 1.999939,7.5023193 1.999939,7.5023193 C1.999939,7.5023193 6.7577515,12.164551 6.7577515,12.164551 C6.7577515,12.164551 6.999939,12.406982 6.999939,12.406982 C6.999939,12.406982 7.2216797,12.629089 7.2216797,12.629089 C7.2216797,12.629089 7.4647827,12.87146 7.4647827,12.87146 C7.4647827,12.87146 7.70697,12.629089 7.70697,12.629089 C7.70697,12.629089 7.999939,12.336365 7.999939,12.336365 C7.999939,12.336365 8.171875,12.164551 8.171875,12.164551 C8.171875,12.164551 12.999939,7.4830933 12.999939,7.4830933 C12.999939,7.4830933 12.999939,6.0706787 12.999939,6.0706787 C12.999939,6.0706787 7.999939,10.922119 7.999939,10.922119 C7.999939,10.922119 8.001038,1.1294556 8.001038,1.1294556 C8.001038,1.1294556 7.0010376,1.1294556 7.0010376,1.1294556 C7.0010376,1.1294556 6.999939,10.993408 6.999939,10.993408 Z"/>
</svg>