<svg xmlns="http://www.w3.org/2000/svg"
 xmlns:xlink="http://www.w3.org/1999/xlink"
 width="59px" height="49px"  viewBox="0 0 59 49">
<path fill-rule="evenodd"  fill="#000000"
 d="M17.965515,27.945068 C17.965515,34.273926 23.09613,39.404297 29.42517,39.404297 C35.75415,39.404297 40.884766,34.273926 40.884766,27.945068 C40.884766,21.61621 35.75415,16.484863 29.42517,16.484863 C23.09613,16.484863 17.965515,21.61621 17.965515,27.945068 ZM54.10742,8.552002 C54.10742,8.552002 41.766296,8.552002 41.766296,8.552002 C40.884766,5.025635 40.003296,1.4997559 36.477234,1.4997559 C36.477234,1.4997559 22.373108,1.4997559 22.373108,1.4997559 C18.847107,1.4997559 17.965515,5.025635 17.084045,8.552002 C17.084045,8.552002 4.742981,8.552002 4.742981,8.552002 C2.8035278,8.552002 1.216919,10.138428 1.216919,12.077637 C1.216919,12.077637 1.216919,43.81201 1.216919,43.81201 C1.216919,45.751465 2.8035278,47.33789 4.742981,47.33789 C4.742981,47.33789 54.10742,47.33789 54.10742,47.33789 C56.04663,47.33789 57.633423,45.751465 57.633423,43.81201 C57.633423,43.81201 57.633423,12.077637 57.633423,12.077637 C57.633423,10.138428 56.04663,8.552002 54.10742,8.552002 ZM29.42517,43.59131 C20.78363,43.59131 13.77832,36.58667 13.77832,27.945068 C13.77832,19.303223 20.78363,12.298096 29.42517,12.298096 C38.066833,12.298096 45.07196,19.303223 45.07196,27.945068 C45.07196,36.58667 38.066895,43.59131 29.42517,43.59131 ZM54.10742,19.129883 C54.10742,19.129883 47.05536,19.129883 47.05536,19.129883 C47.05536,19.129883 47.05536,15.604004 47.05536,15.604004 C47.05536,15.604004 54.10742,15.604004 54.10742,15.604004 C54.10742,15.604004 54.10742,19.129883 54.10742,19.129883 Z"/>
</svg>