<svg xmlns="http://www.w3.org/2000/svg"
 xmlns:xlink="http://www.w3.org/1999/xlink"
 width="34px" height="34px"  viewBox="0 0 34 34">
<path fill-rule="evenodd"  fill="#b2b2b2"
 d="M17.5,1.9995117 C8.939209,1.9995117 1.9998779,8.938965 1.9998779,17.499512 C1.9998779,26.060547 8.939209,32.99951 17.5,32.99951 C26.060791,32.99951 32.999878,26.060547 32.999878,17.499512 C32.999878,8.938965 26.060791,1.9995117 17.5,1.9995117 ZM17.5,30.578125 C10.276855,30.578125 4.421875,24.722656 4.421875,17.499512 C4.421875,10.276855 10.276855,4.421875 17.5,4.421875 C24.723022,4.421875 30.578003,10.276855 30.578003,17.499512 C30.578003,24.722656 24.723022,30.578125 17.5,30.578125 ZM21.178223,15.126953 C21.178223,15.126953 18.481934,15.126953 18.481934,15.126953 C18.481934,15.126953 18.481934,13.15918 18.481934,13.15918 C18.481934,12.555664 19.106323,12.416016 19.397705,12.416016 C19.687256,12.416016 21.139404,12.416016 21.139404,12.416016 C21.139404,12.416016 21.139404,9.760254 21.139404,9.760254 C21.139404,9.760254 19.14331,9.75 19.14331,9.75 C16.419678,9.75 15.797974,11.72998 15.797974,12.999512 C15.797974,12.999512 15.797974,15.126953 15.797974,15.126953 C15.797974,15.126953 13.821777,15.126953 13.821777,15.126953 C13.821777,15.126953 13.821777,17.862793 13.821777,17.862793 C13.821777,17.862793 15.797974,17.862793 15.797974,17.862793 C15.797974,21.375977 15.797974,25.25 15.797974,25.25 C15.797974,25.25 18.481934,25.25 18.481934,25.25 C18.481934,25.25 18.481934,21.335938 18.481934,17.862793 C18.481934,17.862793 20.76184,17.862793 20.76184,17.862793 C20.76184,17.862793 21.178223,15.126953 21.178223,15.126953 Z"/>
</svg>