<svg xmlns="http://www.w3.org/2000/svg"
 xmlns:xlink="http://www.w3.org/1999/xlink"
 width="34px" height="34px"  viewBox="0 0 34 34">
<path fill-rule="evenodd"  fill="#b2b2b2"
 d="M17.416504,1.6665039 C8.901733,1.6665039 1.9998779,8.568359 1.9998779,17.083008 C1.9998779,25.598145 8.901733,32.49951 17.416504,32.49951 C25.931152,32.49951 32.833008,25.598145 32.833008,17.083008 C32.833008,8.568359 25.931152,1.6665039 17.416504,1.6665039 ZM17.416504,30.09082 C10.2323,30.09082 4.4088135,24.267578 4.4088135,17.083008 C4.4088135,9.898926 10.2323,4.0756836 17.416504,4.0756836 C24.600708,4.0756836 30.424194,9.898926 30.424194,17.083008 C30.424194,24.267578 24.600708,30.09082 17.416504,30.09082 ZM18.744995,9.853516 C19.270142,9.558594 19.499756,9.368164 19.499756,9.368164 C19.499756,9.368164 14.484497,9.368164 14.484497,9.368164 C13.479492,9.368164 10.688721,10.509277 10.688721,13.174316 C10.688721,15.839355 13.583008,16.411133 14.633179,16.368164 C14.044067,17.087402 14.548462,17.74414 14.864624,18.080078 C15.178955,18.418457 15.11499,18.523926 14.738525,18.523926 C14.3602295,18.523926 9.702515,18.574707 9.702515,21.909668 C9.702515,25.24414 15.89209,25.484863 17.926392,23.687988 C19.960693,21.890625 19.520386,19.41211 17.947144,18.29248 C16.373901,17.171875 15.786743,16.643066 16.79358,15.754883 C17.800415,14.866211 18.598389,14.147461 18.598389,12.497559 C18.598389,10.847168 17.234009,10.00293 17.234009,10.00293 C17.234009,10.00293 18.220093,10.149902 18.744995,9.853516 ZM17.967773,21.739746 C17.967773,23.17871 16.746582,23.875977 14.672607,23.875977 C12.596924,23.875977 11.484619,22.839844 11.484619,21.295898 C11.484619,19.750977 12.99585,18.989746 15.828003,18.989746 C16.595947,19.581543 17.967773,20.300293 17.967773,21.739746 ZM14.96814,15.711426 C12.470825,15.711426 11.337891,9.876465 14.275635,9.876465 C16.562134,9.790527 18.282227,15.711426 14.96814,15.711426 ZM23.242798,11.3046875 C23.242798,11.3046875 23.242798,9.406738 23.242798,9.406738 C23.242798,9.406738 22.262451,9.406738 22.262451,9.406738 C22.262451,9.406738 22.262451,11.3046875 22.262451,11.3046875 C22.262451,11.3046875 20.342896,11.3046875 20.342896,11.3046875 C20.342896,11.3046875 20.342896,12.289551 20.342896,12.289551 C20.342896,12.289551 22.262451,12.289551 22.262451,12.289551 C22.262451,12.289551 22.262451,14.190918 22.262451,14.190918 C22.262451,14.190918 23.242798,14.190918 23.242798,14.190918 C23.242798,14.190918 23.242798,12.289551 23.242798,12.289551 C23.242798,12.289551 25.130371,12.289551 25.130371,12.289551 C25.130371,12.289551 25.130371,11.3046875 25.130371,11.3046875 C25.130371,11.3046875 23.242798,11.3046875 23.242798,11.3046875 C23.242798,11.3046875 23.242798,11.3046875 23.242798,11.3046875 Z"/>
</svg>