<svg xmlns="http://www.w3.org/2000/svg"
 xmlns:xlink="http://www.w3.org/1999/xlink"
 width="52px" height="57px"  viewBox="0 0 52 57">
<path fill-rule="evenodd"  fill="#000000"
 d="M49.773926,37.018555 C49.773926,37.018555 45.716187,25.024414 45.716187,25.024414 C46.966064,23.270752 47.3208,21.022705 46.62451,18.96582 C45.928345,16.908447 44.28723,15.332275 42.221924,14.69458 C42.221924,14.69458 38.160767,2.6767578 38.160767,2.6767578 C37.68701,1.2744141 36.78186,1.0656738 36.28125,1.0656738 C35.0282,1.0656738 34.348633,2.3034668 33.96399,3.4572754 C31.036743,15.118408 17.845459,18.869629 17.625122,18.934082 C16.42981,19.339111 15.931152,20.071533 15.720703,20.618408 C15.364136,21.548096 15.655884,22.396973 15.823242,22.763184 C15.823242,22.763184 19.879639,34.754395 19.879639,34.754395 C20.303955,36.003906 21.329834,36.746582 22.63269,36.746582 C23.16626,36.746582 23.579224,36.62085 23.691772,36.583984 C27.022095,35.457275 30.28064,34.8833 33.38037,34.8833 C41.64514,34.8833 46.21338,38.98462 46.253174,39.02417 C46.253174,39.02417 46.465332,39.18628 46.465332,39.18628 C46.826538,39.415527 47.53296,39.803467 48.2323,39.803467 C48.83899,39.803467 49.369507,39.534912 49.694458,39.053955 C50.257935,38.211914 49.87329,37.256836 49.773926,37.018555 ZM33.376953,31.919922 C29.959106,31.919922 26.375366,32.54297 22.690674,33.806152 C22.690674,33.806152 18.606567,21.73877 18.606567,21.73877 C20.021729,21.331299 32.22693,17.509033 36.224854,6.220703 C36.224854,6.220703 39.96106,17.26001 39.96106,17.26001 C39.96106,17.26001 42.361206,24.35962 42.361206,24.35962 C42.361206,24.35962 46.04773,35.25464 46.04773,35.25464 C43.654175,33.812744 39.37744,31.919922 33.376953,31.919922 ZM18.250122,41.7229 C18.250122,41.7229 19.04065,39.166748 18.651001,37.993164 C18.651001,37.993164 14.003296,23.958252 14.003296,23.958252 C14.003296,23.958252 13.721558,22.203125 11.861572,22.831543 C11.861572,22.831543 6.0966797,24.783936 6.0966797,24.783936 C6.0966797,24.783936 1.6094971,26.52295 3.0997314,30.928467 C3.0997314,30.928467 5.1535645,36.9917 5.1535645,36.9917 C5.1535645,36.9917 6.779663,42.111084 11.243286,40.598877 C11.243286,40.598877 12.998779,40.075195 13.789429,42.90625 C13.789429,42.90625 17.49231,53.869385 17.49231,53.869385 C17.49231,53.869385 17.809082,55.72583 19.57434,55.125732 C19.57434,55.125732 24.998169,54.18457 20.660034,49.784912 C21.9198,47.143066 18.250122,45.36255 18.250122,41.7229 ZM35.565308,12.898926 C34.93518,12.820801 34.33838,13.2717285 34.255493,13.91333 C33.65869,18.61621 26.680542,20.592041 26.607544,20.61206 C25.97754,20.783936 25.616333,21.430664 25.78711,22.0542 C25.931396,22.574463 26.401855,22.915771 26.91919,22.915771 C27.018677,22.915771 27.124634,22.902588 27.230835,22.875977 C27.578735,22.779541 35.79065,20.472168 36.58606,14.208252 C36.662354,13.563721 36.20813,12.980225 35.565308,12.898926 Z"/>
</svg>