<svg xmlns="http://www.w3.org/2000/svg"
 xmlns:xlink="http://www.w3.org/1999/xlink"
 width="36px" height="58px"  viewBox="0 0 36 58">
<path fill-rule="evenodd"  fill="#000000"
 d="M21.871887,5.9609375 C21.871887,5.368164 21.388672,4.8901367 20.788452,4.8901367 C20.788452,4.8901367 14.901978,4.8901367 14.901978,4.8901367 C14.300476,4.8901367 13.817871,5.368164 13.817871,5.9609375 C13.817871,5.9609375 13.817871,5.989746 13.817871,5.989746 C13.817871,6.5825195 14.300476,7.0603027 14.901978,7.0603027 C14.901978,7.0603027 20.788452,7.0603027 20.788452,7.0603027 C21.388672,7.0603027 21.871887,6.583008 21.871887,5.989746 C21.871887,5.989746 21.871887,5.9609375 21.871887,5.9609375 ZM30.292358,1.9963379 C30.292358,1.9963379 5.3967896,1.9963379 5.3967896,1.9963379 C2.9729004,1.9963379 1.0033569,3.9423828 1.0033569,6.336914 C1.0033569,6.336914 1.0033569,51.90918 1.0033569,51.90918 C1.0033569,54.303467 2.9729004,56.24951 5.3967896,56.24951 C5.3967896,56.24951 30.292358,56.24951 30.292358,56.24951 C32.716553,56.24951 34.685547,54.303467 34.685547,51.90918 C34.685547,51.90918 34.685547,6.337158 34.685547,6.337158 C34.685547,3.9423828 32.716553,1.9963379 30.292358,1.9963379 ZM17.844543,54.62207 C16.534424,54.62207 15.464539,53.566162 15.464539,52.270508 C15.464539,50.976074 16.533875,49.919434 17.844543,49.919434 C19.154907,49.919434 20.224854,50.976074 20.224854,52.270508 C20.224854,53.566162 19.154907,54.62207 17.844543,54.62207 ZM31.023987,47.56958 C31.023987,47.966797 30.69519,48.29248 30.292358,48.29248 C30.292358,48.29248 5.3967896,48.29248 5.3967896,48.29248 C4.994446,48.29248 4.664917,47.966797 4.664917,47.56958 C4.664917,47.56958 4.664917,10.67749 4.664917,10.67749 C4.664917,10.279785 4.994446,9.954346 5.3967896,9.954346 C5.3967896,9.954346 30.292358,9.954346 30.292358,9.954346 C30.69519,9.954346 31.023987,10.280273 31.023987,10.67749 C31.023987,10.67749 31.023987,47.56958 31.023987,47.56958 ZM15.464539,39.61255 C14.959961,39.61255 14.549744,40.01758 14.549744,40.516357 C14.549744,40.69702 14.604492,40.86328 14.69635,41.005615 C14.69635,41.005615 13.190674,42.917725 13.190674,42.917725 C13.09967,42.88672 13.00415,42.867188 12.901855,42.867188 C12.696411,42.867188 12.506531,42.937744 12.354004,43.051514 C12.354004,43.051514 10.491455,41.824463 10.491455,41.824463 C10.509705,41.75293 10.522949,41.67871 10.522949,41.60132 C10.522949,41.10254 10.112183,40.69702 9.607605,40.69702 C9.102356,40.69702 8.691956,41.10254 8.691956,41.60132 C8.691956,41.76294 8.739075,41.911865 8.813599,42.04297 C8.813599,42.04297 7.385376,43.657227 7.385376,43.657227 C7.279541,43.61548 7.1654663,43.590332 7.0446777,43.590332 C6.540039,43.590332 6.129822,43.995605 6.129822,44.494873 C6.129822,44.99341 6.540039,45.39917 7.0446777,45.39917 C7.5498047,45.39917 7.9608154,44.99341 7.9608154,44.494873 C7.9608154,44.33203 7.9142456,44.184082 7.838562,44.052246 C7.838562,44.052246 9.266785,42.43921 9.266785,42.43921 C9.372742,42.48047 9.486816,42.505615 9.607605,42.505615 C9.814026,42.505615 10.003418,42.434326 10.156006,42.3208 C10.156006,42.3208 12.019104,43.548096 12.019104,43.548096 C11.99939,43.61914 11.986694,43.693848 11.986694,43.771484 C11.986694,44.269775 12.397827,44.67627 12.901855,44.67627 C13.407043,44.67627 13.817871,44.269775 13.817871,43.771484 C13.817871,43.591064 13.762512,43.424316 13.670593,43.28247 C13.670593,43.28247 15.175659,41.36963 15.175659,41.36963 C15.267883,41.401123 15.363342,41.421143 15.464539,41.421143 C15.969421,41.421143 16.380188,41.014893 16.380188,40.516357 C16.380188,40.017822 15.969421,39.61255 15.464539,39.61255 ZM11.254944,24.783203 C11.254944,24.783203 11.254944,21.527832 11.254944,21.527832 C9.233093,21.527832 7.5941772,23.14795 7.5941772,25.14502 C7.5941772,25.14502 10.889038,25.14502 10.889038,25.14502 C11.091064,25.14502 11.254944,24.982422 11.254944,24.783203 ZM14.866943,25.747803 C15.194824,23.739258 13.84729,21.973877 11.986694,21.601807 C11.986694,21.601807 11.986694,25.14502 11.986694,25.14502 C11.986694,25.54419 11.6588745,25.868164 11.254944,25.868164 C11.254944,25.868164 7.668335,25.868164 7.668335,25.868164 C8.0460205,27.705322 9.832642,29.037354 11.864868,28.713623 C13.382874,28.470947 14.621094,27.24707 14.866943,25.747803 ZM9.789978,15.017578 C9.789978,15.017578 11.986694,15.017578 11.986694,15.017578 C11.986694,15.017578 11.986694,19.35791 11.986694,19.35791 C11.986694,19.35791 9.789978,19.35791 9.789978,19.35791 C9.789978,19.35791 9.789978,15.017578 9.789978,15.017578 ZM6.8617554,17.1875 C6.8617554,17.1875 9.057495,17.1875 9.057495,17.1875 C9.057495,17.1875 9.057495,19.357422 9.057495,19.357422 C9.057495,19.357422 6.8617554,19.357422 6.8617554,19.357422 C6.8617554,19.357422 6.8617554,17.1875 6.8617554,17.1875 ZM12.719238,12.124268 C12.719238,12.124268 14.915894,12.124268 14.915894,12.124268 C14.915894,12.124268 14.915894,19.35791 14.915894,19.35791 C14.915894,19.35791 12.719238,19.35791 12.719238,19.35791 C12.719238,19.35791 12.719238,12.124268 12.719238,12.124268 ZM18.570557,17.9104 C18.570557,17.9104 28.096313,17.9104 28.096313,17.9104 C28.496399,17.9104 28.821228,17.590332 28.821228,17.19458 C28.821228,17.19458 28.821228,17.180908 28.821228,17.180908 C28.821228,16.785156 28.497559,16.4646 28.096313,16.4646 C28.096313,16.4646 18.570557,16.4646 18.570557,16.4646 C18.169373,16.4646 17.844543,16.785156 17.844543,17.180908 C17.844543,17.180908 17.844543,17.19458 17.844543,17.19458 C17.844543,17.590332 18.169373,17.9104 18.570557,17.9104 ZM11.480469,38.19995 C11.480469,38.19995 11.480469,37.430664 11.480469,37.430664 C12.512756,37.296387 13.114563,36.568848 13.114563,35.715088 C13.114563,33.84082 10.260559,34.016846 10.260559,33.020508 C10.260559,32.60327 10.658386,32.31006 11.166321,32.31006 C11.920715,32.31006 12.496155,32.828613 12.496155,32.828613 C12.496155,32.828613 12.970093,31.951416 12.970093,31.951416 C12.970093,31.951416 12.461548,31.423584 11.480469,31.339844 C11.480469,31.339844 11.480469,30.570068 11.480469,30.570068 C11.480469,30.570068 10.7508545,30.570068 10.7508545,30.570068 C10.7508545,30.570068 10.7508545,31.356445 10.7508545,31.356445 C9.811279,31.507568 9.159485,32.176514 9.159485,33.038574 C9.159485,34.836426 12.021301,34.73584 12.021301,35.739502 C12.021301,36.225098 11.606079,36.458984 11.14978,36.458984 C10.302124,36.458984 9.651428,35.832275 9.651428,35.832275 C9.651428,35.832275 9.057495,36.643555 9.057495,36.643555 C9.057495,36.643555 9.658752,37.30542 10.7508545,37.430664 C10.7508545,37.430664 10.7508545,38.19995 10.7508545,38.19995 C10.7508545,38.19995 11.480469,38.19995 11.480469,38.19995 ZM28.102478,30.932129 C28.102478,30.932129 18.576172,30.932129 18.576172,30.932129 C18.176636,30.932129 17.851624,31.252441 17.851624,31.648193 C17.851624,31.648193 17.851624,31.662354 17.851624,31.662354 C17.851624,32.057373 18.176086,32.378906 18.576172,32.378906 C18.576172,32.378906 28.102478,32.378906 28.102478,32.378906 C28.503113,32.378906 28.827942,32.05786 28.827942,31.662354 C28.827942,31.662354 28.827942,31.648193 28.827942,31.648193 C28.827942,31.253174 28.503113,30.932129 28.102478,30.932129 ZM28.102478,25.868164 C28.102478,25.868164 18.576172,25.868164 18.576172,25.868164 C18.176636,25.868164 17.851624,26.18872 17.851624,26.584473 C17.851624,26.584473 17.851624,26.598145 17.851624,26.598145 C17.851624,26.993408 18.176086,27.313965 18.576172,27.313965 C18.576172,27.313965 28.102478,27.313965 28.102478,27.313965 C28.503113,27.313965 28.827942,26.993408 28.827942,26.598145 C28.827942,26.598145 28.827942,26.584473 28.827942,26.584473 C28.827942,26.18872 28.503113,25.868164 28.102478,25.868164 ZM18.570557,14.294189 C18.570557,14.294189 28.096313,14.294189 28.096313,14.294189 C28.496399,14.294189 28.821228,13.973877 28.821228,13.577637 C28.821228,13.577637 28.821228,13.563721 28.821228,13.563721 C28.821228,13.167969 28.497559,12.847412 28.096313,12.847412 C28.096313,12.847412 18.570557,12.847412 18.570557,12.847412 C18.169373,12.847412 17.844543,13.167969 17.844543,13.563721 C17.844543,13.563721 17.844543,13.577637 17.844543,13.577637 C17.844543,13.973877 18.169373,14.294189 18.570557,14.294189 ZM28.102478,43.228516 C28.102478,43.228516 18.576172,43.228516 18.576172,43.228516 C18.176636,43.228516 17.851624,43.54956 17.851624,43.9458 C17.851624,43.9458 17.851624,43.958984 17.851624,43.958984 C17.851624,44.35498 18.176086,44.67627 18.576172,44.67627 C18.576172,44.67627 28.102478,44.67627 28.102478,44.67627 C28.503113,44.67627 28.827942,44.355225 28.827942,43.958984 C28.827942,43.958984 28.827942,43.9458 28.827942,43.9458 C28.827942,43.55005 28.503113,43.228516 28.102478,43.228516 ZM28.102478,39.61255 C28.102478,39.61255 18.576172,39.61255 18.576172,39.61255 C18.176636,39.61255 17.851624,39.93335 17.851624,40.32837 C17.851624,40.32837 17.851624,40.342773 17.851624,40.342773 C17.851624,40.738037 18.176086,41.058838 18.576172,41.058838 C18.576172,41.058838 28.102478,41.058838 28.102478,41.058838 C28.503113,41.058838 28.827942,40.739258 28.827942,40.342773 C28.827942,40.342773 28.827942,40.32837 28.827942,40.32837 C28.827942,39.93335 28.503113,39.61255 28.102478,39.61255 ZM28.102478,34.548584 C28.102478,34.548584 18.576172,34.548584 18.576172,34.548584 C18.176636,34.548584 17.851624,34.869385 17.851624,35.264404 C17.851624,35.264404 17.851624,35.279053 17.851624,35.279053 C17.851624,35.674072 18.176086,35.994873 18.576172,35.994873 C18.576172,35.994873 28.102478,35.994873 28.102478,35.994873 C28.503113,35.994873 28.827942,35.674072 28.827942,35.279053 C28.827942,35.279053 28.827942,35.264404 28.827942,35.264404 C28.827942,34.869385 28.503113,34.548584 28.102478,34.548584 ZM28.102478,22.251465 C28.102478,22.251465 18.576172,22.251465 18.576172,22.251465 C18.176636,22.251465 17.851624,22.571533 17.851624,22.96753 C17.851624,22.96753 17.851624,22.98169 17.851624,22.98169 C17.851624,23.376953 18.176086,23.698242 18.576172,23.698242 C18.576172,23.698242 28.102478,23.698242 28.102478,23.698242 C28.503113,23.698242 28.827942,23.377441 28.827942,22.98169 C28.827942,22.98169 28.827942,22.96753 28.827942,22.96753 C28.827942,22.572266 28.503113,22.251465 28.102478,22.251465 Z"/>
</svg>