<svg xmlns="http://www.w3.org/2000/svg"
 xmlns:xlink="http://www.w3.org/1999/xlink"
 width="57px" height="57px"  viewBox="0 0 57 57">
<path fill-rule="evenodd"  fill="#222222"
 d="M40.3125,52.124756 C40.3125,52.124756 36.93747,52.124756 36.93747,52.124756 C35.075287,52.124756 33.56244,50.61206 33.56244,48.75 C33.56244,48.75 33.56244,43.68701 33.56244,43.68701 C33.56244,43.68701 23.43747,43.68701 23.43747,43.68701 C23.43747,43.68701 23.43747,48.75 23.43747,48.75 C23.43747,50.61206 21.925415,52.124756 20.062439,52.124756 C20.062439,52.124756 16.687408,52.124756 16.687408,52.124756 C15.753906,52.124756 14.999939,52.881104 14.999939,53.81201 C14.999939,54.74463 15.753906,55.499756 16.687408,55.499756 C16.687408,55.499756 40.3125,55.499756 40.3125,55.499756 C41.245087,55.499756 41.99997,54.74463 41.99997,53.81201 C41.99997,52.881104 41.245087,52.124756 40.3125,52.124756 ZM52.546844,1.4995117 C52.546844,1.4995117 4.453064,1.4995117 4.453064,1.4995117 C2.8232422,1.4995117 1.499939,2.9169922 1.499939,4.6638184 C1.499939,4.6638184 1.499939,37.14795 1.499939,37.14795 C1.499939,38.894775 2.8232422,40.3125 4.453064,40.3125 C4.453064,40.3125 52.546844,40.3125 52.546844,40.3125 C54.176636,40.3125 55.49997,38.894775 55.49997,37.14795 C55.49997,37.14795 55.49997,4.6638184 55.49997,4.6638184 C55.49997,2.9169922 54.176636,1.4995117 52.546844,1.4995117 ZM52.12494,36.937256 C52.12494,36.937256 4.8749695,36.937256 4.8749695,36.937256 C4.8749695,36.937256 4.8749695,4.8745117 4.8749695,4.8745117 C4.8749695,4.8745117 52.12494,4.8745117 52.12494,4.8745117 C52.12494,4.8745117 52.12494,36.937256 52.12494,36.937256 Z"/>
</svg>