<svg xmlns="http://www.w3.org/2000/svg"
 xmlns:xlink="http://www.w3.org/1999/xlink"
 width="17px" height="15px"  viewBox="0 0 17 15">
<path fill-rule="evenodd"  fill="#5a5a5a"
 d="M14.761047,4.1262207 C14.761047,4.1262207 12.208801,4.1262207 12.208801,4.1262207 C12.208801,4.1262207 12.208801,2.8502197 12.208801,2.8502197 C12.208801,2.3804932 11.828308,1.9995117 11.358032,1.9995117 C11.358032,1.9995117 6.253601,1.9995117 6.253601,1.9995117 C5.7840576,1.9995117 5.402893,2.380127 5.402893,2.8502197 C5.402893,2.8502197 5.402893,4.1262207 5.402893,4.1262207 C5.402893,4.1262207 2.850708,4.1262207 2.850708,4.1262207 C2.3810425,4.1262207 1.9998779,4.5076904 1.9998779,4.9769287 C1.9998779,4.9769287 1.9998779,13.05896 1.9998779,13.05896 C1.9998779,13.52832 2.3810425,13.910034 2.850708,13.910034 C2.850708,13.910034 14.761047,13.910034 14.761047,13.910034 C15.23053,13.910034 15.611816,13.52832 15.611816,13.05896 C15.611816,13.05896 15.611816,4.9769287 15.611816,4.9769287 C15.611816,4.5076904 15.23053,4.1262207 14.761047,4.1262207 ZM6.679016,3.2756348 C6.679016,3.2756348 10.932617,3.2756348 10.932617,3.2756348 C10.932617,3.2756348 10.932617,4.1262207 10.932617,4.1262207 C10.932617,4.1262207 6.679016,4.1262207 6.679016,4.1262207 C6.679016,4.1262207 6.679016,3.2756348 6.679016,3.2756348 ZM14.335754,12.633667 C14.335754,12.633667 3.276062,12.633667 3.276062,12.633667 C3.276062,12.633667 3.276062,9.230835 3.276062,9.230835 C3.276062,9.230835 7.529724,9.230835 7.529724,9.230835 C7.529724,9.230835 7.529724,9.655884 7.529724,9.655884 C7.529724,9.655884 10.082031,9.655884 10.082031,9.655884 C10.082031,9.655884 10.082031,9.230835 10.082031,9.230835 C10.082031,9.230835 14.335754,9.230835 14.335754,9.230835 C14.335754,9.230835 14.335754,12.633667 14.335754,12.633667 ZM14.335754,7.954834 C14.335754,7.954834 10.082031,7.954834 10.082031,7.954834 C10.082031,7.954834 10.082031,7.5290527 10.082031,7.5290527 C10.082031,7.5290527 7.529724,7.5290527 7.529724,7.5290527 C7.529724,7.5290527 7.529724,7.954834 7.529724,7.954834 C7.529724,7.954834 3.276062,7.954834 3.276062,7.954834 C3.276062,7.954834 3.276062,5.4023438 3.276062,5.4023438 C3.276062,5.4023438 14.335754,5.4023438 14.335754,5.4023438 C14.335754,5.4023438 14.335754,7.954834 14.335754,7.954834 Z"/>
</svg>